<?xml version="1.0" encoding="utf-8"?>
<!-- Generator: Adobe Illustrator 26.0.3, SVG Export Plug-In . SVG Version: 6.00 Build 0)  -->
<svg version="1.0" id="katman_1" xmlns:serif="http://www.serif.com/"
	 xmlns="http://www.w3.org/2000/svg" xmlns:xlink="http://www.w3.org/1999/xlink" x="0px" y="0px" viewBox="0 0 760 568"
	 style="enable-background:new 0 0 760 568;" xml:space="preserve">
<style type="text/css">
	.st0{fill:#030404;}
	.st1{fill:#FDB525;}
	.st2{fill:#9B268F;}
	.st3{fill:#E91E77;}
</style>
<g transform="matrix(4.16667,0,0,4.16667,0,0)">
	<path class="st0" d="M22.8,73.4h-3.6v-2.7h10.2v2.7h-3.6v10.7h-3V73.4z"/>
	<path class="st0" d="M30.2,70.7H33v4.9c0.4-0.8,1.4-1.4,2.7-1.4c2.3,0,3.6,1.5,3.6,4v5.9h-2.9v-5.6c0-1.1-0.6-1.8-1.7-1.8
		c-1,0-1.8,0.8-1.8,1.9v5.5h-2.9V70.7z"/>
	<path class="st0" d="M47.5,78.2c0-0.9-0.9-1.6-2-1.6c-1.2,0-2.2,0.7-2.3,1.6H47.5z M40.3,79.3c0-3.1,2.2-5.1,5.2-5.1
		c3,0,4.9,2.2,4.9,4.9c0,0,0,0.5-0.1,0.9h-7.1c0.1,1.2,1,1.9,2.6,1.9c1.9,0,2.9-0.6,3.5-0.9v2.5c-0.9,0.6-1.9,0.9-3.6,0.9
		C42.5,84.4,40.3,82.4,40.3,79.3L40.3,79.3z"/>
	<path class="st0" d="M56,70.2l7.1,7.7l7.1-7.7v13.9h-2.9v-6.8l-4.2,4.8l-4.2-4.8v6.8H56V70.2z"/>
	<path class="st0" d="M76.6,81.8c1.4,0,2.5-1.1,2.5-2.5c0-1.4-1.1-2.5-2.5-2.5c-1.4,0-2.5,1.1-2.5,2.5
		C74.1,80.7,75.2,81.8,76.6,81.8z M76.6,74.1c3,0,5.4,2.3,5.4,5.2c0,2.9-2.4,5.2-5.4,5.2c-3,0-5.4-2.3-5.4-5.2
		C71.2,76.4,73.6,74.1,76.6,74.1z"/>
	<path class="st0" d="M83.6,77h-1.3v-2.6h1.3v-3.7h2.8v3.7h2.1V77h-2.1v7.1h-2.8V77z"/>
	<rect x="89.3" y="70.7" class="st0" width="2.9" height="13.4"/>
	<path class="st0" d="M100.3,78.2c0-0.9-0.9-1.6-2-1.6c-1.2,0-2.2,0.7-2.3,1.6H100.3z M93.1,79.3c0-3.1,2.2-5.1,5.2-5.1
		c3,0,4.9,2.2,4.9,4.9c0,0,0,0.5-0.1,0.9H96c0.1,1.2,1,1.9,2.6,1.9c1.9,0,2.9-0.6,3.5-0.9v2.5c-0.9,0.6-1.9,0.9-3.6,0.9
		C95.3,84.4,93.1,82.4,93.1,79.3L93.1,79.3z"/>
	<path class="st0" d="M102.8,74.4h3l2.6,6.5l2.6-6.5h3l-5.7,13.5h-3l1.6-3.6L102.8,74.4z"/>
	<path class="st0" d="M118.8,70.7h8.9v2.7h-5.9v2.8h5.4v2.6h-5.4v5.3h-3V70.7z"/>
	<path class="st0" d="M133.5,81.8c1.4,0,2.5-1.1,2.5-2.5c0-1.4-1.1-2.5-2.5-2.5c-1.4,0-2.5,1.1-2.5,2.5
		C131,80.7,132.1,81.8,133.5,81.8z M133.5,74.1c3,0,5.4,2.3,5.4,5.2c0,2.9-2.4,5.2-5.4,5.2c-3,0-5.4-2.3-5.4-5.2
		C128.1,76.4,130.5,74.1,133.5,74.1z"/>
	<path class="st0" d="M144.9,81.8c1.4,0,2.5-1.1,2.5-2.5c0-1.4-1.1-2.5-2.5-2.5c-1.4,0-2.5,1.1-2.5,2.5
		C142.4,80.7,143.5,81.8,144.9,81.8z M144.9,74.1c3,0,5.4,2.3,5.4,5.2c0,2.9-2.4,5.2-5.4,5.2c-3,0-5.4-2.3-5.4-5.2
		C139.5,76.4,141.9,74.1,144.9,74.1z"/>
	<rect x="151.3" y="70.7" class="st0" width="2.9" height="13.4"/>
	<path class="st1" d="M163.2,67.3c0,1.1-0.9,1.9-1.9,1.9c-1.1,0-1.9-0.9-1.9-1.9s0.9-1.9,1.9-1.9C162.3,65.3,163.2,66.2,163.2,67.3z
		"/>
	<path class="st2" d="M149.6,48.6c5.6,0,10.4,6.3,11.7,14.9c0,0.2-0.1,0.3-0.2,0.3c-0.1,0-0.3-0.1-0.3-0.2c-1.3-3.3-3.6-5.4-6.2-5.4
		c-3.7,0-7,4.6-7.4,10.9c-0.5,1-4.4,1.8-7.9,2V56C141.4,51.5,145.8,48.6,149.6,48.6z"/>
	<path class="st1" d="M115.2,67.3c0,1.1,0.9,1.9,1.9,1.9c1.1,0,1.9-0.9,1.9-1.9s-0.9-1.9-1.9-1.9C116.1,65.3,115.2,66.2,115.2,67.3z
		"/>
	<path class="st3" d="M128.8,48.6c-5.6,0-10.4,6.3-11.7,14.9c0,0.2,0.1,0.3,0.2,0.3c0.1,0,0.3-0.1,0.3-0.2c1.3-3.3,3.6-5.4,6.2-5.4
		c3.7,0,7,4.6,7.4,10.9c0.5,1,4.4,1.8,7.9,2V56C137,51.5,132.6,48.6,128.8,48.6z"/>
	<path class="st0" d="M156.9,83.5c0.1,0,0.2-0.1,0.2-0.2c0-0.1-0.1-0.2-0.2-0.2h-0.2v0.3H156.9z M156.5,82.9h0.4
		c0.2,0,0.3,0.1,0.3,0.3c0,0.1-0.1,0.2-0.2,0.3l0.3,0.4h-0.2l-0.2-0.4h-0.1V84h-0.2V82.9z M157.6,83.5c0-0.5-0.3-0.8-0.8-0.8
		c-0.4,0-0.8,0.3-0.8,0.8c0,0.4,0.3,0.8,0.8,0.8C157.3,84.3,157.6,83.9,157.6,83.5z M155.9,83.5c0-0.5,0.4-0.9,0.9-0.9
		c0.5,0,1,0.4,1,0.9c0,0.5-0.4,0.9-1,0.9C156.3,84.4,155.9,84,155.9,83.5z"/>
</g>
</svg>
